HIERARCHY
ROOT RootJoint
{
    OFFSET   0.000000   0.000000   0.000000
    CHANNELS 6 Xposition Yposition Zposition Xrotation Yrotation Zrotation
    JOINT pelvis_lowerback
    {
        OFFSET   0.000000   0.093605   0.000000
        CHANNELS 3 Xrotation Yrotation Zrotation
        JOINT lowerback_torso
        {
            OFFSET   0.000000   0.100000   0.000000
            CHANNELS 3 Xrotation Yrotation Zrotation
            JOINT torso_head
            {
                OFFSET   0.000000   0.282350   0.000000
                CHANNELS 3 Xrotation Yrotation Zrotation
                End Site
                {
                    OFFSET   0.000000   0.192650   0.000000
                }
            }
            JOINT rTorso_Clavicle
            {
                OFFSET  -0.001000   0.157500   0.000000
                CHANNELS 3 Xrotation Yrotation Zrotation
                JOINT rShoulder
                {
                    OFFSET  -0.117647   0.000000   0.000000
                    CHANNELS 3 Xrotation Yrotation Zrotation
                    JOINT rElbow
                    {
                        OFFSET  -0.245000   0.000000   0.000000
                        CHANNELS 3 Xrotation Yrotation Zrotation
                        JOINT rWrist
                        {
                            OFFSET  -0.240000   0.000000   0.000000
                            CHANNELS 3 Xrotation Yrotation Zrotation
                            End Site
                            {
                                OFFSET  -0.116353  -0.002500   0.000000
                            }
                        }
                    }
                }
            }
            JOINT lTorso_Clavicle
            {
                OFFSET   0.001000   0.157500   0.000000
                CHANNELS 3 Xrotation Yrotation Zrotation
                JOINT lShoulder
                {
                    OFFSET   0.117647   0.000000   0.000000
                    CHANNELS 3 Xrotation Yrotation Zrotation
                    JOINT lElbow
                    {
                        OFFSET   0.245000   0.000000   0.000000
                        CHANNELS 3 Xrotation Yrotation Zrotation
                        JOINT lWrist
                        {
                            OFFSET   0.240000   0.000000   0.000000
                            CHANNELS 3 Xrotation Yrotation Zrotation
                            End Site
                            {
                                OFFSET   0.116353  -0.002500   0.000000
                            }
                        }
                    }
                }
            }
        }
    }
    JOINT rHip
    {
        OFFSET  -0.100000  -0.051395   0.000000
        CHANNELS 3 Xrotation Yrotation Zrotation
        JOINT rKnee
        {
            OFFSET   0.000000  -0.410000   0.000000
            CHANNELS 3 Xrotation Yrotation Zrotation
            JOINT rAnkle
            {
                OFFSET   0.000000  -0.390000   0.000000
                CHANNELS 3 Xrotation Yrotation Zrotation
                JOINT rToeJoint
                {
                    OFFSET   0.000000  -0.050000   0.130000
                    CHANNELS 3 Xrotation Yrotation Zrotation
                    End Site
                    {
                        OFFSET  -0.010000   0.002000   0.060000
                    }
                }
            }
        }
    }
    JOINT lHip
    {
        OFFSET   0.100000  -0.051395   0.000000
        CHANNELS 3 Xrotation Yrotation Zrotation
        JOINT lKnee
        {
            OFFSET   0.000000  -0.410000   0.000000
            CHANNELS 3 Xrotation Yrotation Zrotation
            JOINT lAnkle
            {
                OFFSET   0.000000  -0.390000   0.000000
                CHANNELS 3 Xrotation Yrotation Zrotation
                JOINT lToeJoint
                {
                    OFFSET   0.000000  -0.050000   0.130000
                    CHANNELS 3 Xrotation Yrotation Zrotation
                    End Site
                    {
                        OFFSET   0.010000   0.002000   0.060000
                    }
                }
            }
        }
    }
}
MOTION
Frames: 12
Frame Time:   0.008333
 -2.376719   0.925631   3.975860   0.000000   0.000000   0.000000   0.000000   0.000000   0.000000   0.000000   0.000000   0.000000   0.000000   0.000000   0.000000   0.000000   0.000000   0.000000   0.000000   0.000000   0.000000   0.000000   0.000000   0.000000   0.000000   0.000000   0.000000   0.000000   0.000000   0.000000   0.000000   0.000000   0.000000   0.000000   0.000000   0.000000   0.000000   0.000000   0.000000   0.000000   0.000000   0.000000   0.000000   0.000000   0.000000   0.000000   0.000000   0.000000   0.000000   0.000000   0.000000   0.000000   0.000000   0.000000   0.000000   0.000000   0.000000   0.000000   0.000000   0.000000   0.000000   0.000000   0.000000
 -2.376525   0.926194   3.975757  -0.308058   0.103694  -0.000522   0.321922  -0.006552   0.050223   0.212633  -0.165124  -0.011187  -0.146092   0.122961  -0.014749   0.317902  -0.344454   0.286608   1.057142   0.217096   2.046650   0.022759   1.090315  -0.015411   0.420293  -0.388161  -2.492851   0.342752   0.301637  -0.524036   1.386341  -0.039764  -1.899981   0.021661  -1.031370   0.017760   0.446984   0.269786   2.507379  -0.009181  -0.065801  -0.160401   1.102232   0.001552   0.000345  -1.057792  -0.409752  -0.043765  -0.163479  -0.000291   0.000529   0.002764  -0.111906   0.124659   1.023647  -0.001110  -0.000060  -0.950523   0.132907   0.040025   0.421429  -0.000601   0.000459
 -2.376289   0.927149   3.975725  -0.672782   0.228857   0.001955   0.651401  -0.028206   0.110599   0.493892  -0.344646  -0.021118  -0.258347   0.240220  -0.022563   0.630200  -0.638963   1.271649   2.090039   0.510062   4.651921   0.052637   2.147980  -0.027150   0.889080  -0.464750  -4.266705   0.684470   0.538230  -1.768917   2.750145  -0.171820  -4.389250   0.050233  -2.030007   0.031410   0.953692   0.262915   4.279353   0.023173  -0.135456  -0.449906   2.280698   0.004220   0.000712  -2.044726  -0.798309  -0.093975  -0.358418  -0.000808   0.000986   0.064088  -0.213736   0.361975   2.115367  -0.003163   0.000268  -1.836673   0.259284   0.080304   0.776743  -0.001340   0.000844
 -2.376042   0.928086   3.975778  -1.021460   0.355015   0.006242   0.957955  -0.058015   0.171418   0.766770  -0.523935  -0.029685  -0.357918   0.349708  -0.026249   0.925816  -0.873274   2.687342   3.089855   0.875754   7.622634   0.081999   3.144917  -0.035066   1.347925  -0.428876  -5.241330   1.007090   0.704778  -3.442555   4.082432  -0.402461  -7.260306   0.078434  -2.973978   0.040943   1.450286   0.141325   5.230920   0.056771  -0.203536  -0.839620   3.404120   0.007198   0.000839  -2.965031  -1.161842  -0.148188  -0.539915  -0.001348   0.001270   0.142729  -0.303999   0.695107   3.158229  -0.005570   0.000758  -2.663006   0.378436   0.120587   1.098764  -0.002119   0.001142
 -2.375799   0.928712   3.975927  -1.339822   0.471894   0.011292   1.238953  -0.092069   0.229528   1.015255  -0.698658  -0.037659  -0.451152   0.451962  -0.027984   1.204832  -1.058252   4.348111   4.055947   1.314047  10.837356   0.107437   4.081823  -0.040002   1.791440  -0.333813  -5.625870   1.308145   0.816526  -5.351047   5.383224  -0.732466 -10.382761   0.102979  -3.864174   0.047294   1.931337  -0.051035   5.582660   0.082240  -0.268981  -1.306787   4.454272   0.010037   0.000678  -3.824877  -1.501584  -0.205157  -0.712189  -0.001865   0.001448   0.228658  -0.384798   1.106751   4.136804  -0.007962   0.001259  -3.434861   0.490528   0.160667   1.387822  -0.002829   0.001336
 -2.375564   0.928810   3.976185  -1.626783   0.574102   0.016458   1.494485  -0.128434   0.283807   1.237116  -0.867042  -0.045586  -0.538514   0.547448  -0.028861   1.466892  -1.206517   6.129586   4.986321   1.820370  14.212638   0.127592   4.960498  -0.042662   2.217889  -0.203318  -5.614645   1.586053   0.888778  -7.367226   6.650300  -1.157229 -13.668323   0.122535  -4.701941   0.051223   2.394751  -0.290453   5.536484   0.099099  -0.330984  -1.832917   5.432582   0.012506   0.000279  -4.628524  -1.818859  -0.263859  -0.875444  -0.002325   0.001555   0.320223  -0.457872   1.580503   5.052867  -0.010132   0.001699  -4.155936   0.595759   0.200305   1.647558  -0.003420   0.001437
 -2.375345   0.928218   3.976558  -1.884534   0.659059   0.021706   1.724944  -0.166041   0.333010   1.433150  -1.028333  -0.055689  -0.619760   0.636579  -0.028860   1.712307  -1.329850   7.950394   5.878733   2.388000  17.692725   0.142235   5.782753  -0.043601   2.625820  -0.054702  -5.350110   1.840858   0.934975  -9.414627   7.872481  -1.666770 -17.039015   0.136799  -5.488768   0.053258   2.838797  -0.559419   5.229321   0.108883  -0.388964  -2.402402   6.343918   0.014497  -0.000281  -5.379650  -2.114975  -0.323463  -1.029245  -0.002705   0.001608   0.417428  -0.524479   2.101708   5.910933  -0.011974   0.002050  -4.829466   0.694364   0.239265   1.881769  -0.003873   0.001461
 -2.375213   0.926218   3.976448  -1.884522   0.659919   0.015272   1.792395  -0.181806   0.395637   1.573048  -1.136075  -0.106503  -0.825901   0.568269  -0.074437   2.020268  -1.294940   9.107681   6.863584   2.997217  21.217217   0.155032   6.726855  -0.047820   2.985710   0.083690  -4.077969   2.136901   0.967383 -10.722901   8.908286  -2.207378 -20.349576   0.151145  -6.461200   0.057017   3.230181  -0.919177   3.792384  -0.274941  -0.715645  -2.925660   7.336957   0.015763  -0.003957  -5.732078  -2.536114  -0.215590  -1.031192  -0.002172   0.001298   0.270679  -0.512448   2.600405   6.384282  -0.011582   0.002028  -5.282400   0.855079   0.205482   2.046106  -0.003741   0.001475
 -2.375123   0.923026   3.976157  -1.859905   0.648052   0.003819   1.892494  -0.190757   0.451969   1.700759  -1.223939  -0.152000  -1.028984   0.497718  -0.128141   2.289215  -1.213433  10.035337   7.737907   3.646382  24.405205   0.158969   7.623915  -0.050063   3.344069   0.313646  -2.826681   2.397867   0.972746 -11.747960   9.840318  -2.771639 -23.304315   0.155567  -7.381088   0.058585   3.605367  -1.373300   2.435492  -0.679228  -1.036009  -3.406484   8.253636   0.016022  -0.006725  -6.055029  -2.934185  -0.118003  -0.995242  -0.001611   0.000801   0.077419  -0.503277   3.066546   6.751276  -0.010703   0.001877  -5.707694   1.005877   0.175471   2.198904  -0.003543   0.001433
 -2.375046   0.918755   3.975798  -1.831096   0.634785  -0.011277   2.012939  -0.191969   0.506551   1.831172  -1.297462  -0.187649  -1.215180   0.431514  -0.182115   2.524096  -1.114566  10.796106   8.512706   4.304973  27.299036   0.156850   8.468253  -0.050594   3.687974   0.577778  -1.765741   2.629282   0.965579 -12.575659  10.680191  -3.338422 -25.962269   0.153357  -8.242252   0.058257   3.958677  -1.832569   1.310349  -1.065525  -1.333116  -3.848935   9.099734   0.015638  -0.008527  -6.356327  -3.306268  -0.029245  -0.960138  -0.001175   0.000421  -0.140754  -0.498108   3.496765   7.067809  -0.009696   0.001705  -6.105785   1.146516   0.148583   2.337686  -0.003289   0.001359
 -2.374900   0.917422   3.975795  -1.933537   0.602369   0.511193   2.201446  -0.184967   0.128648   2.011337  -1.363425  -0.399264  -1.378063   0.369626  -0.250278   2.730933  -0.997196  11.716972   9.192248   4.975401  30.060093   0.152867   9.255410  -0.049719   4.014405   0.806891  -0.886026   2.831625   0.943506 -13.433709  11.433676  -3.900841 -28.401964   0.148503  -9.033857   0.056329   4.288899  -2.187608   0.460449  -1.281111  -1.596625  -4.735686   9.874566   0.014425  -0.009607  -6.627648  -3.657528   0.048932  -0.851628  -0.000667  -0.000319  -0.524494  -0.330528   2.979196   7.944566  -0.007625   0.002723  -5.854371   1.380729  -0.113625   2.522826  -0.002208   0.001715
 -2.375300   0.917191   3.975984  -2.008363   0.669091   0.565340   2.345059  -0.200666   0.176858   2.172096  -1.437272  -0.464071  -1.526185   0.311207  -0.316644   2.930249  -0.904154  12.483736   9.803518   5.617177  32.601701   0.146064   9.989501  -0.047838   4.322323   1.041250  -0.003640   3.019736   0.927266 -14.240257  12.112130  -4.465059 -30.719380   0.141475  -9.782445   0.053230   4.600306  -2.569887  -0.416802  -1.560426  -1.673754  -4.807974  10.649008   0.011416  -0.008146  -7.001858  -3.748309   0.270597  -0.743738  -0.000735  -0.000384  -0.738169  -0.349583   2.964140   8.538699  -0.006236   0.002605  -6.099962   1.447776  -0.193915   2.144568  -0.001929   0.000926
